<svg width="32" height="32" viewBox="0 0 32 32" fill="none" xmlns="http://www.w3.org/2000/svg">
<path d="M22.5688 16.3384C22.5688 16.9867 22.536 17.6391 22.4703 18.2955C22.4129 18.9438 22.2939 19.5756 22.1134 20.1911C21.9411 20.8065 21.699 21.3932 21.3872 21.9512C21.0836 22.5092 20.6856 23.0179 20.1932 23.4775H21.3256L22.8027 25.4591H20.0701L19.1347 24.2652C18.5193 24.6755 17.8464 24.9709 17.1161 25.1514C16.394 25.332 15.639 25.4222 14.8513 25.4222C14.0061 25.4222 13.243 25.2704 12.5619 24.9668C11.8808 24.655 11.2982 24.2365 10.8141 23.7113C10.3381 23.1862 9.96886 22.5789 9.70627 21.8896C9.4519 21.2004 9.32471 20.4741 9.32471 19.711C9.32471 18.9315 9.42728 18.2422 9.63242 17.6432C9.84577 17.0359 10.1166 16.5149 10.4448 16.08C10.773 15.6369 11.13 15.2758 11.5156 14.9968C11.9013 14.7178 12.2747 14.5086 12.6357 14.3691C12.4798 14.1393 12.3198 13.8767 12.1557 13.5813C11.9998 13.2777 11.8562 12.9659 11.7249 12.6459C11.6018 12.3258 11.4992 12.0017 11.4172 11.6735C11.3351 11.3452 11.2941 11.0334 11.2941 10.738C11.2941 10.1472 11.372 9.59742 11.528 9.08866C11.6921 8.5799 11.9505 8.13679 12.3034 7.75933C12.6562 7.38186 13.1117 7.08645 13.6697 6.8731C14.2276 6.65155 14.9005 6.54077 15.6883 6.54077C16.2299 6.54077 16.714 6.61462 17.1407 6.76233C17.5756 6.90182 17.9613 7.08235 18.2977 7.30391C18.6423 7.51726 18.9419 7.75522 19.1962 8.01781C19.4588 8.27219 19.6845 8.51426 19.8732 8.74402L18.8885 10.4426C18.7654 10.2293 18.6095 10.0077 18.4208 9.77794C18.2321 9.54818 18.0023 9.33893 17.7315 9.1502C17.4689 8.95326 17.1571 8.79325 16.796 8.67017C16.4432 8.54708 16.0411 8.48554 15.5898 8.48554C15.1959 8.48554 14.8636 8.56349 14.5928 8.7194C14.3302 8.87531 14.1169 9.06814 13.9528 9.29791C13.7886 9.52767 13.6697 9.77384 13.5958 10.0364C13.5302 10.299 13.4973 10.537 13.4973 10.7503C13.4973 10.9883 13.5384 11.2468 13.6204 11.5258C13.6532 11.6489 13.7148 11.8048 13.8051 11.9935C13.9035 12.1822 14.0389 12.4325 14.2112 12.7443C14.3918 13.0479 14.6215 13.4295 14.9005 13.889C15.1795 14.3403 15.5201 14.8942 15.9221 15.5507C16.3324 16.1989 16.8084 16.9621 17.3499 17.8401C17.8997 18.7181 18.5316 19.7315 19.2455 20.8803C19.4424 20.6013 19.5983 20.31 19.7132 20.0064C19.8363 19.7028 19.9306 19.3787 19.9963 19.034C20.0701 18.6894 20.1194 18.3201 20.144 17.9263C20.1686 17.5242 20.1809 17.0811 20.1809 16.5969L22.5688 16.3384ZM13.325 16.5969C12.8081 16.8349 12.3978 17.1959 12.0942 17.6801C11.7987 18.1642 11.651 18.8002 11.651 19.5879C11.651 20.1787 11.7577 20.6957 11.9711 21.1388C12.1844 21.5819 12.4552 21.9512 12.7834 22.2466C13.1199 22.542 13.4932 22.7636 13.9035 22.9113C14.322 23.0508 14.7364 23.1205 15.1467 23.1205C15.4995 23.1205 15.8114 23.1 16.0821 23.059C16.3529 23.0179 16.5909 22.9646 16.796 22.899C17.0012 22.8251 17.1817 22.743 17.3376 22.6528C17.5017 22.5543 17.6494 22.4476 17.7807 22.3328L13.325 15.3661V16.5969Z" fill="#B8944F"/>
<path d="M28.6441 21.1103H22.4258V11.2141H28.3635C30.387 11.2141 31.48 12.0708 31.48 13.6217C31.48 14.8476 30.8301 15.7338 29.1758 15.852V15.9849C31.0074 16.1179 31.8936 17.0336 31.8936 18.363C31.8936 20.0468 30.8597 21.1103 28.6441 21.1103ZM24.6413 13.2081V15.143H28.1124C28.9247 15.143 29.2645 14.8624 29.2645 14.183C29.2645 13.5035 28.91 13.2081 28.0828 13.2081H24.6413ZM24.6413 16.9746V19.1163H28.3782C29.2792 19.1163 29.6485 18.8356 29.6485 18.038C29.6485 17.2552 29.2792 16.9746 28.3782 16.9746H24.6413Z" fill="#B8944F"/>
<path d="M6.32477 21.1103H0.106445V11.2141H6.04413C8.06767 11.2141 9.16068 12.0708 9.16068 13.6217C9.16068 14.8476 8.51078 15.7338 6.8565 15.852V15.9849C8.68803 16.1179 9.57425 17.0336 9.57425 18.363C9.57425 20.0468 8.54032 21.1103 6.32477 21.1103ZM2.322 13.2081V15.143H5.79304C6.60541 15.143 6.94512 14.8624 6.94512 14.183C6.94512 13.5035 6.59064 13.2081 5.7635 13.2081H2.322ZM2.322 16.9746V19.1163H6.0589C6.9599 19.1163 7.32915 18.8356 7.32915 18.038C7.32915 17.2552 6.9599 16.9746 6.0589 16.9746H2.322Z" fill="#B8944F"/>
</svg>
