<svg width="600" height="105" viewBox="0 0 600 105" fill="none" xmlns="http://www.w3.org/2000/svg">
<path d="M38.2147 54.3632H8.68481V10.2986H36.702C46.2384 10.2986 50.9736 14.0474 50.9736 20.953C50.9736 26.6091 48.0141 30.6209 39.9904 30.9497V31.6074C48.8033 31.9363 53.0125 36.0139 53.0125 42.1303C53.0125 49.5621 48.7375 54.3632 38.2147 54.3632ZM20.9834 21.4134V27.0037H35.3866C37.8858 27.0037 38.6093 26.2802 38.6093 24.2414C38.6093 22.2026 37.6227 21.4134 35.0578 21.4134H20.9834ZM20.9834 37.1319V43.2484H36.6362C39.5958 43.2484 40.5165 42.6564 40.5165 40.1573C40.5165 37.7238 39.6616 37.1319 36.6362 37.1319H20.9834Z" fill="#0C382E"/>
<path d="M68.9854 55.0208C61.4878 55.0208 57.2786 51.6009 57.2786 45.9448C57.2786 41.2753 60.5013 37.9212 67.9988 37.1977L81.4813 35.8823V35.2247C81.4813 31.8705 80.0344 31.3443 75.6279 31.3443C71.5503 31.3443 70.3007 32.1336 70.3007 34.8958V35.1589H57.9363V35.0274C57.9363 26.2144 65.3023 20.5584 76.5487 20.5584C88.1238 20.5584 93.7141 26.2144 93.7141 35.4877V54.3632H82.139V47.3917H81.4813C80.2317 52.0613 76.1541 55.0208 68.9854 55.0208ZM69.7088 45.1556C69.7088 46.2079 70.7611 46.4052 72.6684 46.4052C78.6532 46.4052 81.0867 45.6818 81.4155 42.7222L71.2872 43.906C70.1692 44.0376 69.7088 44.4322 69.7088 45.1556Z" fill="#0C382E"/>
<path d="M111.717 54.3632H99.3522V10.2986H111.717V31.2786H112.374C113.427 25.6883 117.11 20.5584 125.594 20.5584C134.407 20.5584 138.616 26.1487 138.616 33.5147V54.3632H126.251V37.6581C126.251 33.0543 124.476 31.6074 118.82 31.6074C113.098 31.6074 111.717 32.9885 111.717 37.2635V54.3632Z" fill="#0C382E"/>
<path d="M162.642 55.0208C151.133 55.0208 143.306 48.5098 143.306 37.7896C143.306 27.0037 151.133 20.5584 162.642 20.5584C174.151 20.5584 181.978 27.0037 181.978 37.7896C181.978 48.5098 174.151 55.0208 162.642 55.0208ZM162.642 44.1033C168.232 44.1033 169.745 42.5907 169.745 37.7896C169.745 32.9885 168.232 31.4101 162.642 31.4101C157.052 31.4101 155.539 32.9885 155.539 37.7896C155.539 42.5907 157.052 44.1033 162.642 44.1033Z" fill="#0C382E"/>
<path d="M204.744 55.0208C193.038 55.0208 186.79 50.4828 186.79 42.8538V42.5907H199.154V43.2484C199.154 45.0899 200.338 45.2872 204.81 45.2872C209.085 45.2872 209.743 44.8268 209.743 43.7087C209.743 42.6564 209.217 42.3934 206.126 42.0645L196.523 41.0122C189.684 40.2888 186.001 37.0662 186.001 31.4759C186.001 25.6225 190.67 20.5584 203.1 20.5584C214.61 20.5584 220.726 24.7018 220.726 32.857V33.1201H208.362V32.7255C208.362 31.0155 207.704 30.2263 202.706 30.2263C198.694 30.2263 198.168 30.7524 198.168 32.002C198.168 32.9228 198.694 33.3832 202.574 33.7778L209.151 34.5012C218.819 35.5535 221.91 38.7761 221.91 44.3664C221.91 50.5486 215.728 55.0208 204.744 55.0208Z" fill="#0C382E"/>
<path d="M318.094 54.3632H288.564V10.2986H316.582C326.118 10.2986 330.853 14.0474 330.853 20.953C330.853 26.6091 327.894 30.6209 319.87 30.9497V31.6074C328.683 31.9363 332.892 36.0139 332.892 42.1303C332.892 49.5621 328.617 54.3632 318.094 54.3632ZM300.863 21.4134V27.0037H315.266C317.765 27.0037 318.489 26.2802 318.489 24.2414C318.489 22.2026 317.502 21.4134 314.937 21.4134H300.863ZM300.863 37.1319V43.2484H316.516C319.475 43.2484 320.396 42.6564 320.396 40.1573C320.396 37.7238 319.541 37.1319 316.516 37.1319H300.863Z" fill="#0C382E"/>
<path d="M351.101 55.0208C341.828 55.0208 337.487 49.6279 337.487 42.4591V21.2161H349.852V37.9212C349.852 42.5249 351.627 43.9718 357.283 43.9718C363.005 43.9718 364.386 42.5907 364.386 38.3158V21.2161H376.751V54.3632H365.175V44.3006H364.518C363.794 49.8252 360.111 55.0208 351.101 55.0208Z" fill="#0C382E"/>
<path d="M394.792 54.3632H382.428V21.2161H394.003V29.8975H394.661C395.581 24.4387 399.001 20.5584 405.578 20.5584C412.878 20.5584 415.772 25.3595 415.772 32.002V38.5788H403.408V34.6985C403.408 31.9363 402.355 30.9497 399.133 30.9497C395.779 30.9497 394.792 31.9363 394.792 34.567V54.3632Z" fill="#0C382E"/>
<path d="M432.6 54.3632H421.025V10.2986H433.39V29.7659H434.047C435.034 24.2414 438.717 20.5584 446.543 20.5584C456.277 20.5584 461.736 27.0037 461.736 37.7896C461.736 48.5098 456.145 55.0208 446.017 55.0208C438.257 55.0208 434.31 51.9955 433.258 45.4187H432.6V54.3632ZM433.39 37.8554C433.39 42.6564 436.02 43.7087 441.545 43.7087C447.267 43.7087 449.24 42.1961 449.24 37.7896C449.24 33.3832 447.267 31.8047 441.545 31.8047C436.02 31.8047 433.39 32.7255 433.39 37.395V37.8554Z" fill="#0C382E"/>
<path d="M478.371 55.0208C470.874 55.0208 466.665 51.6009 466.665 45.9448C466.665 41.2753 469.887 37.9212 477.385 37.1977L490.867 35.8823V35.2247C490.867 31.8705 489.42 31.3443 485.014 31.3443C480.936 31.3443 479.687 32.1336 479.687 34.8958V35.1589H467.322V35.0274C467.322 26.2144 474.688 20.5584 485.935 20.5584C497.51 20.5584 503.1 26.2144 503.1 35.4877V54.3632H491.525V47.3917H490.867C489.618 52.0613 485.54 55.0208 478.371 55.0208ZM479.095 45.1556C479.095 46.2079 480.147 46.4052 482.054 46.4052C488.039 46.4052 490.473 45.6818 490.802 42.7222L480.673 43.906C479.555 44.0376 479.095 44.4322 479.095 45.1556Z" fill="#0C382E"/>
<path d="M521.103 54.3632H508.738V21.2161H520.313V31.2786H520.971C521.695 25.7541 525.312 20.5584 534.19 20.5584C543.135 20.5584 547.344 25.9514 547.344 33.1201V54.3632H534.98V37.6581C534.98 33.0543 533.27 31.6074 527.877 31.6074C522.418 31.6074 521.103 32.9885 521.103 37.2635V54.3632Z" fill="#0C382E"/>
<path d="M571.979 55.0208C560.47 55.0208 552.644 48.5098 552.644 37.7896C552.644 27.0037 560.47 20.5584 571.979 20.5584C583.489 20.5584 591.315 27.0037 591.315 37.7896C591.315 48.5098 583.489 55.0208 571.979 55.0208ZM571.979 44.1033C577.57 44.1033 579.082 42.5907 579.082 37.7896C579.082 32.9885 577.57 31.4101 571.979 31.4101C566.389 31.4101 564.876 32.9885 564.876 37.7896C564.876 42.5907 566.389 44.1033 571.979 44.1033Z" fill="#0C382E"/>
<path d="M270.486 32.1232C270.486 33.8218 270.347 35.3905 270.07 36.8292C269.793 38.2505 269.42 39.5505 268.952 40.7292C268.484 41.8905 267.929 42.9305 267.288 43.8492C266.664 44.7505 265.997 45.5218 265.286 46.1632H267.288L271.552 51.8052H261.698L259.722 48.7632L258.786 51.0772C258.387 51.1812 257.98 51.2765 257.564 51.3632C257.165 51.4498 256.741 51.5278 256.29 51.5972C255.857 51.6665 255.38 51.7185 254.86 51.7532C254.357 51.7878 253.794 51.8052 253.17 51.8052C251.211 51.8052 249.443 51.4758 247.866 50.8172C246.289 50.1412 244.937 49.2485 243.81 48.1392C242.701 47.0125 241.843 45.7125 241.236 44.2392C240.647 42.7485 240.352 41.1885 240.352 39.5592C240.352 38.2072 240.543 36.9678 240.924 35.8412C241.305 34.7145 241.799 33.7092 242.406 32.8252C243.013 31.9238 243.689 31.1438 244.434 30.4852C245.197 29.8092 245.951 29.2545 246.696 28.8212C246.401 28.3185 246.107 27.7725 245.812 27.1832C245.517 26.5938 245.249 25.9958 245.006 25.3892C244.781 24.7652 244.59 24.1585 244.434 23.5692C244.295 22.9625 244.226 22.3992 244.226 21.8792C244.226 20.5965 244.417 19.3832 244.798 18.2392C245.197 17.0778 245.821 16.0638 246.67 15.1972C247.519 14.3305 248.611 13.6458 249.946 13.1432C251.298 12.6232 252.927 12.3632 254.834 12.3632C256.169 12.3632 257.339 12.5192 258.344 12.8312C259.367 13.1258 260.277 13.5332 261.074 14.0532C261.871 14.5558 262.582 15.1452 263.206 15.8212C263.847 16.4798 264.463 17.1818 265.052 17.9272L261.386 22.7632C260.901 22.1218 260.441 21.5585 260.008 21.0732C259.575 20.5878 259.124 20.1805 258.656 19.8512C258.205 19.5218 257.711 19.2792 257.174 19.1232C256.654 18.9498 256.065 18.8632 255.406 18.8632C254.782 18.8632 254.279 18.9672 253.898 19.1752C253.517 19.3658 253.213 19.6085 252.988 19.9032C252.78 20.1978 252.633 20.5272 252.546 20.8912C252.477 21.2378 252.442 21.5758 252.442 21.9052C252.442 22.1132 252.451 22.3298 252.468 22.5552C252.503 22.7632 252.555 22.9712 252.624 23.1792C252.711 23.5258 252.867 23.9332 253.092 24.4012C253.335 24.8692 253.681 25.4932 254.132 26.2732C254.6 27.0358 255.189 27.9978 255.9 29.1592C256.628 30.3205 257.521 31.7592 258.578 33.4752C258.907 34.0125 259.176 34.4545 259.384 34.8012C259.592 35.1305 259.809 35.4685 260.034 35.8152C260.259 36.1618 260.511 36.5692 260.788 37.0372C261.083 37.4878 261.473 38.1032 261.958 38.8832C262.201 38.5712 262.391 38.1638 262.53 37.6612C262.651 37.1932 262.703 36.3785 262.686 35.2172V32.6432L270.486 32.1232ZM249.686 33.3192V35.8672C249.097 36.7858 248.802 37.9385 248.802 39.3252C248.802 40.3305 248.949 41.2058 249.244 41.9512C249.556 42.6965 249.946 43.3205 250.414 43.8232C250.899 44.3085 251.437 44.6812 252.026 44.9412C252.615 45.1838 253.196 45.3052 253.768 45.3052C254.496 45.3052 255.085 45.2185 255.536 45.0452C256.004 44.8545 256.411 44.6292 256.758 44.3692L249.686 33.3192Z" fill="#0C382E"/>
<path d="M62.8277 92.6846H56.6762V79.1714H62.8277C67.0228 79.1714 69.6649 81.753 69.6649 85.928C69.6649 90.103 67.0228 92.6846 62.8277 92.6846ZM62.8277 81.1278H58.8343V90.7282H62.8277C65.9539 90.7282 67.3657 89.397 67.3657 85.928C67.3657 82.459 65.9539 81.1278 62.8277 81.1278Z" fill="#B8944F"/>
<path d="M90.1659 92.6846H79.3554V79.1714H90.1659V81.1278H81.5337V84.9196H89.8634V86.8558H81.5337V90.7282H90.1659V92.6846Z" fill="#B8944F"/>
<path d="M102.108 92.6846H99.93V79.1714H106.949C110.014 79.1714 111.91 80.6236 111.91 83.1447C111.91 85.3834 110.438 86.7549 107.897 86.8961V87.0373C108.946 87.3196 109.43 87.9247 109.914 88.7718L112.173 92.6846H109.672L107.514 88.9533C106.908 87.8844 106.283 87.4407 104.589 87.4407H102.108V92.6846ZM102.108 81.1278V85.7666H106.929C108.744 85.7666 109.651 85.1414 109.651 83.4472C109.651 81.7934 108.744 81.1278 106.929 81.1278H102.108Z" fill="#B8944F"/>
<path d="M132.359 92.6846H121.549V79.1714H132.359V81.1278H123.727V84.9196H132.056V86.8558H123.727V90.7282H132.359V92.6846Z" fill="#B8944F"/>
<path d="M148.698 92.8863C144.503 92.8863 141.72 90.1433 141.72 85.928C141.72 81.7127 144.503 78.9697 148.698 78.9697C152.51 78.9697 155.172 80.9866 155.172 84.2136V84.496H152.772V84.2136C152.772 82.1564 151.461 81.0471 148.718 81.0471C145.552 81.0471 144.019 82.5598 144.019 85.928C144.019 89.2962 145.552 90.7887 148.718 90.7887C151.461 90.7887 152.772 89.6996 152.772 87.6222V87.36H155.172V87.6222C155.172 90.8694 152.53 92.8863 148.698 92.8863Z" fill="#B8944F"/>
<path d="M167.023 92.6846H164.845V79.1714H167.023V84.8994H174.969V79.1714H177.127V92.6846H174.969V86.8558H167.023V92.6846Z" fill="#B8944F"/>
<path d="M193.867 92.8863C189.631 92.8863 186.828 90.1433 186.828 85.928C186.828 81.7127 189.631 78.9697 193.867 78.9697C198.143 78.9697 200.926 81.7127 200.926 85.928C200.926 90.1433 198.143 92.8863 193.867 92.8863ZM193.867 90.7887C197.074 90.7887 198.627 89.2962 198.627 85.928C198.627 82.5598 197.074 81.0471 193.867 81.0471C190.66 81.0471 189.127 82.5598 189.127 85.928C189.127 89.2962 190.66 90.7887 193.867 90.7887Z" fill="#B8944F"/>
<path d="M224.134 94.7015H222.117V77.1545H224.134V94.7015Z" fill="#B8944F"/>
<path d="M256.567 92.6846H245.756V79.1714H256.567V81.1278H247.935V84.9196H256.264V86.8558H247.935V90.7282H256.567V92.6846Z" fill="#B8944F"/>
<path d="M268.509 92.6846H266.331V79.1714H269.296L273.188 86.9969L274.419 89.8004H274.58L275.77 86.9969L279.622 79.1714H282.587V92.6846H280.409V84.3952L280.49 82.4388H280.328L279.501 84.3952L275.77 91.8778H273.148L269.417 84.3952L268.59 82.4388H268.429L268.509 84.3952V92.6846Z" fill="#B8944F"/>
<path d="M294.855 92.6846H292.677V79.1714H299.292C302.297 79.1714 304.354 80.8858 304.354 83.8909C304.354 86.8759 302.297 88.6105 299.292 88.6105H294.855V92.6846ZM299.09 81.1278H294.855V86.6541H299.09C301.127 86.6541 302.176 85.8877 302.176 83.8909C302.176 81.8942 301.127 81.1278 299.09 81.1278Z" fill="#B8944F"/>
<path d="M315.902 92.6846H313.724V79.1714H320.743C323.808 79.1714 325.704 80.6236 325.704 83.1447C325.704 85.3834 324.232 86.7549 321.691 86.8961V87.0373C322.739 87.3196 323.223 87.9247 323.707 88.7718L325.966 92.6846H323.465L321.307 88.9533C320.702 87.8844 320.077 87.4407 318.383 87.4407H315.902V92.6846ZM315.902 81.1278V85.7666H320.722C322.538 85.7666 323.445 85.1414 323.445 83.4472C323.445 81.7934 322.538 81.1278 320.722 81.1278H315.902Z" fill="#B8944F"/>
<path d="M346.153 92.6846H335.342V79.1714H346.153V81.1278H337.521V84.9196H345.85V86.8558H337.521V90.7282H346.153V92.6846Z" fill="#B8944F"/>
<path d="M361.584 92.8863C357.551 92.8863 355.493 91.1114 355.493 88.2676V88.1466H357.672V88.4693C357.672 90.0828 358.62 90.8895 361.584 90.8895C364.166 90.8895 365.074 90.3248 365.074 89.0542C365.074 87.8844 364.388 87.4407 362.673 87.118L359.366 86.5734C357.087 86.17 355.473 85.1212 355.473 82.9027C355.473 80.9463 357.087 78.9697 361.282 78.9697C365.235 78.9697 367.03 80.9463 367.03 83.5884V83.7094H364.872V83.4472C364.872 81.7934 363.884 80.9665 361.08 80.9665C358.62 80.9665 357.651 81.5715 357.651 82.7817C357.651 83.9515 358.337 84.3347 359.931 84.6775L363.218 85.2423C365.921 85.7263 367.252 86.9566 367.252 88.9332C367.252 90.9904 365.578 92.8863 361.584 92.8863Z" fill="#B8944F"/>
<path d="M378.278 92.6846H375.857L381.888 79.1714H384.953L390.984 92.6846H388.523L386.97 89.1752H379.831L378.278 92.6846ZM382.533 83.1044L380.698 87.2188H386.103L384.268 83.1044L383.481 81.1883H383.32L382.533 83.1044Z" fill="#B8944F"/>
<path d="M413.591 94.7015H411.574V77.1545H413.591V94.7015Z" fill="#B8944F"/>
<path d="M446.024 92.6846H435.214V79.1714H446.024V81.1278H437.392V84.9196H445.722V86.8558H437.392V90.7282H446.024V92.6846Z" fill="#B8944F"/>
<path d="M461.456 92.8863C457.422 92.8863 455.365 91.1114 455.365 88.2676V88.1466H457.543V88.4693C457.543 90.0828 458.491 90.8895 461.456 90.8895C464.037 90.8895 464.945 90.3248 464.945 89.0542C464.945 87.8844 464.259 87.4407 462.545 87.118L459.237 86.5734C456.958 86.17 455.344 85.1212 455.344 82.9027C455.344 80.9463 456.958 78.9697 461.153 78.9697C465.106 78.9697 466.901 80.9463 466.901 83.5884V83.7094H464.743V83.4472C464.743 81.7934 463.755 80.9665 460.951 80.9665C458.491 80.9665 457.523 81.5715 457.523 82.7817C457.523 83.9515 458.208 84.3347 459.802 84.6775L463.089 85.2423C465.792 85.7263 467.123 86.9566 467.123 88.9332C467.123 90.9904 465.449 92.8863 461.456 92.8863Z" fill="#B8944F"/>
<path d="M483.453 92.6846H481.295V81.1278H475.971V79.1714H488.758V81.1278H483.453V92.6846Z" fill="#B8944F"/>
<path d="M499.511 92.6846H497.091L503.122 79.1714H506.187L512.218 92.6846H509.757L508.204 89.1752H501.064L499.511 92.6846ZM503.767 83.1044L501.932 87.2188H507.337L505.501 83.1044L504.715 81.1883H504.554L503.767 83.1044Z" fill="#B8944F"/>
<path d="M527.566 92.6846H521.415V79.1714H527.566C531.761 79.1714 534.403 81.753 534.403 85.928C534.403 90.103 531.761 92.6846 527.566 92.6846ZM527.566 81.1278H523.573V90.7282H527.566C530.692 90.7282 532.104 89.397 532.104 85.928C532.104 82.459 530.692 81.1278 527.566 81.1278Z" fill="#B8944F"/>
<path d="M550.729 92.8863C546.494 92.8863 543.691 90.1433 543.691 85.928C543.691 81.7127 546.494 78.9697 550.729 78.9697C555.005 78.9697 557.789 81.7127 557.789 85.928C557.789 90.1433 555.005 92.8863 550.729 92.8863ZM550.729 90.7887C553.936 90.7887 555.489 89.2962 555.489 85.928C555.489 82.5598 553.936 81.0471 550.729 81.0471C547.523 81.0471 545.99 82.5598 545.99 85.928C545.99 89.2962 547.523 90.7887 550.729 90.7887Z" fill="#B8944F"/>
</svg>
